<?xml version="1.0" standalone="no"?>
<!DOCTYPE svg PUBLIC "-//W3C//DTD SVG 20010904//EN"
 "https://www.w3.org/TR/2001/REC-SVG-20010904/DTD/svg10.dtd">
<svg version="1.0" xmlns="https://www.w3.org/2000/svg"
 width="593.000000pt" height="593.000000pt" viewBox="0 0 593.000000 593.000000"
 preserveAspectRatio="xMidYMid meet">
<metadata>
Created by potrace 1.14, written by Peter Selinger 2001-2017
</metadata>
<g transform="translate(0.000000,593.000000) scale(0.100000,-0.100000)"
fill="#000000" stroke="none">
<path d="M3 5523 c53 -93 425 -735 572 -988 109 -187 206 -356 217 -375 34
-59 384 -663 407 -700 11 -19 24 -41 28 -49 3 -8 36 -64 71 -125 110 -188 163
-279 187 -321 12 -22 59 -102 104 -179 44 -76 81 -139 81 -141 0 -2 17 -32 38
-66 22 -35 51 -86 66 -112 34 -62 411 -711 486 -837 14 -25 29 -52 33 -60 25
-57 664 -1142 672 -1142 6 1 128 205 273 454 144 249 282 487 306 528 49 84
253 436 284 490 11 19 198 343 417 720 219 377 431 744 473 815 425 733 767
1323 782 1349 11 17 25 42 33 56 7 14 98 171 201 350 104 179 191 328 193 333
2 4 -510 7 -1139 7 l-1144 0 -222 -387 c-415 -724 -453 -788 -457 -788 -2 0
-159 263 -348 585 l-344 585 -1137 3 c-626 1 -1135 -1 -1133 -5z"/>
</g>
</svg>
